<svg width="20" height="20" viewBox="0 0 20 20" fill="none" xmlns="http://www.w3.org/2000/svg">
<g clip-path="url(#clip0_7521_296)">
<path d="M0 6.38C-0.000105078 5.3158 0.315405 4.27547 0.906623 3.39061C1.49784 2.50574 2.3382 1.81609 3.32142 1.40889C4.30463 1.00169 5.38653 0.895229 6.43025 1.10298C7.47398 1.31072 8.43265 1.82334 9.185 2.576L10 3.391L10.815 2.576C11.3147 2.07639 11.9079 1.68008 12.5607 1.40972C13.2135 1.13936 13.9132 1.00022 14.6199 1.00027C15.3265 1.00032 16.0261 1.13954 16.6789 1.40999C17.3317 1.68044 17.9249 2.07682 18.4245 2.5765C18.9241 3.07618 19.3204 3.66937 19.5908 4.32221C19.8611 4.97505 20.0003 5.67475 20.0002 6.38135C20.0002 7.08796 19.861 7.78764 19.5905 8.44044C19.3201 9.09324 18.9237 9.68639 18.424 10.186L10.471 18.138C10.346 18.2627 10.1766 18.3327 10 18.3327C9.82341 18.3327 9.65403 18.2627 9.529 18.138L1.576 10.185C0.567026 9.17615 0.000124375 7.80682 0 6.38ZM5.38 2.334C4.57936 2.33387 3.79667 2.57122 3.13096 3.01602C2.46525 3.46083 1.94643 4.0931 1.64015 4.83284C1.33387 5.57258 1.25389 6.38655 1.41033 7.17176C1.56677 7.95696 1.9526 8.67813 2.519 9.244L10 16.723L17.481 9.243C18.2201 8.47985 18.6295 7.45676 18.621 6.39445C18.6124 5.33213 18.1867 4.31574 17.4355 3.56454C16.6843 2.81335 15.6679 2.38756 14.6056 2.37904C13.5432 2.37052 12.5201 2.77995 11.757 3.519L10.471 4.805C10.346 4.9297 10.1766 4.99972 10 4.99972C9.82341 4.99972 9.65403 4.9297 9.529 4.805L8.243 3.519C7.48363 2.75975 6.45382 2.33315 5.38 2.333" fill="white"/>
</g>
<defs>
<clipPath id="clip0_7521_296">
<rect width="20" height="20" fill="white"/>
</clipPath>
</defs>
</svg>
