<svg width="30" height="30" viewBox="0 0 30 30" fill="none" xmlns="http://www.w3.org/2000/svg">
<path d="M14.5545 0.104644C14.8815 -0.0580407 15.2768 -0.0305163 15.5809 0.186675L29.5809 10.1867L29.661 10.2502C30.0415 10.5849 30.1142 11.1599 29.8133 11.5812C29.5124 12.0025 28.9448 12.1206 28.5047 11.8693L28.4188 11.8136L27.9998 11.5138V29.0002H1.99985V11.5138L1.5809 11.8136C1.13153 12.1346 0.507402 12.0305 0.186369 11.5812C-0.13464 11.1318 -0.0306215 10.5077 0.418791 10.1867L14.4188 0.186675L14.5545 0.104644ZM3.99985 10.0851V27.0002H9.99985V14.0002H19.9998V27.0002H25.9998V10.0851L14.9998 2.22867L3.99985 10.0851ZM11.9998 27.0002H17.9998V16.0002H11.9998V27.0002Z" fill="#FF868E"/>
</svg>
