<svg width="20" height="20" viewBox="0 0 20 20" fill="none" xmlns="http://www.w3.org/2000/svg">
<g clip-path="url(#clip0_7638_294)">
<path d="M19 10C19 7.99151 18.3282 6.04073 17.0914 4.45817C15.8547 2.87561 14.1241 1.75221 12.1751 1.2668C10.2262 0.781383 8.17086 0.961843 6.33631 1.77945C4.50176 2.59706 2.99343 4.00484 2.05138 5.7787C1.10933 7.55256 0.787703 9.59057 1.1377 11.5683C1.4877 13.5461 2.4892 15.3499 3.9828 16.6928C5.47641 18.0356 7.37627 18.8403 9.37999 18.9786C11.3837 19.117 13.3761 18.5811 15.0401 17.4563" stroke="#FF868E" stroke-width="2"/>
</g>
<defs>
<clipPath id="clip0_7638_294">
<rect width="20" height="20" fill="white" transform="matrix(-1 0 0 1 20 0)"/>
</clipPath>
</defs>
</svg>
