<svg width="320" height="320" viewBox="0 0 320 320" fill="none" xmlns="http://www.w3.org/2000/svg">
<path d="M200 100C188.954 100 180 108.954 180 120C180 131.046 188.954 140 200 140C211.046 140 220 131.046 220 120C220 108.954 211.046 100 200 100Z" fill="black" fill-opacity="0.05"/>
<path fill-rule="evenodd" clip-rule="evenodd" d="M60 80C60 68.9543 68.9543 60 80 60H240C251.046 60 260 68.9543 260 80V240C260 241.38 259.86 242.729 259.594 244.031C259.199 245.958 258.528 247.784 257.623 249.465C254.247 255.737 247.621 260 240 260H80C68.9543 260 60 251.046 60 240V80ZM124.656 101.895L120 97.2387L73.3333 143.905V80C73.3333 76.3181 76.3181 73.3333 80 73.3333H240C243.682 73.3333 246.667 76.3181 246.667 80V193.333H216.095L124.715 101.953C124.695 101.933 124.676 101.914 124.656 101.895Z" fill="black" fill-opacity="0.05"/>
</svg>
