<svg width="16" height="16" viewBox="0 0 16 16" fill="none" xmlns="http://www.w3.org/2000/svg">
<path fill-rule="evenodd" clip-rule="evenodd" d="M2.62475 8.50868C3.76019 9.77028 5.49337 10.9988 7.96165 10.9988C10.4299 10.9988 12.1631 9.77028 13.2986 8.50868C13.8667 7.87746 14.2783 7.24444 14.5477 6.76919C14.682 6.53209 14.7801 6.33574 14.8438 6.20054C14.8757 6.13298 14.8989 6.08082 14.9137 6.04663C14.9211 6.02954 14.9264 6.01695 14.9296 6.00919L14.9329 6.00121L14.9333 6.00036C14.9332 6.00053 14.9331 6.00072 15.4283 6.1988C15.9235 6.39687 15.9234 6.3971 15.9233 6.39735L15.9231 6.39795L15.9225 6.39952L15.9206 6.40411L15.9145 6.419C15.9093 6.43142 15.902 6.44878 15.8924 6.47075C15.8734 6.51469 15.8456 6.57711 15.8087 6.65539C15.7349 6.81185 15.6247 7.03217 15.4757 7.29507C15.1783 7.81982 14.7233 8.52013 14.0914 9.22224C13.8963 9.43899 13.6838 9.65652 13.4532 9.86943L15.2721 11.6883L14.5179 12.4426L12.6247 10.5494C11.5497 11.3284 10.183 11.9407 8.49499 12.0486L8.495 14.1988L7.42833 14.1988L7.42832 12.0486C5.74028 11.9407 4.37362 11.3284 3.29861 10.5494L1.40546 12.4426L0.651209 11.6883L2.4701 9.86944C2.23955 9.65652 2.02697 9.43899 1.8319 9.22224C1.2 8.52012 0.745006 7.81981 0.447651 7.29507C0.298673 7.03216 0.188431 6.81185 0.114668 6.65538C0.0777664 6.57711 0.0499344 6.51468 0.030896 6.47075C0.0213751 6.44878 0.0140477 6.43142 0.00887967 6.419L0.00274077 6.40411L0.000876558 6.39952L0.00024424 6.39795L2.83322e-06 6.39735C-9.708e-05 6.3971 -0.000188764 6.39687 0.494999 6.1988C0.990187 6.00072 0.990112 6.00053 0.990045 6.00037L0.98995 6.00013L0.990391 6.00121L0.993684 6.00919C0.996914 6.01696 1.00222 6.02954 1.00962 6.04664C1.02444 6.08083 1.04765 6.13298 1.0795 6.20054C1.14323 6.33574 1.24132 6.53209 1.37568 6.76919C1.64498 7.24444 2.05666 7.87747 2.62475 8.50868ZM0.989904 6.00002C0.989887 5.99997 0.989903 6.00001 0.98995 6.00013Z" fill="#FF868E"/>
</svg>
